<svg width="250" height="108" viewBox="0 0 250 108" fill="none" xmlns="http://www.w3.org/2000/svg">
<path d="M125 0C55.9644 0 0 24.1766 0 54C0 83.8234 55.9644 108 125 108C194.036 108 250 83.8234 250 54C250 24.1766 194.036 0 125 0Z" fill="#e6f1ff" fill-opacity="0.1"/>
<path d="M125 10C70.2944 10 25 29.7614 25 54C25 78.2386 70.2944 98 125 98C179.706 98 225 78.2386 225 54C225 29.7614 179.706 10 125 10Z" fill="#e6f1ff" fill-opacity="0.1"/>
<path d="M220 54H245V46H220V54Z" fill="#e6f1ff" fill-opacity="0.1"/>
<path d="M125 98V108H110V98H125Z" fill="#e6f1ff" fill-opacity="0.1"/>
</svg>